# xmcd CD database file
#
# Track frame offsets:
#	182
#	20895
#	38955
#	54290
#	69377
#	89067
#	109595
#	131792
#	151285
#	173740
#	188437
#	205725
#	229547
#	242212
#	258157
#	275672
#
# Disc length: 3913 seconds
#
# Revision: 0
# Processed by: cddbd v1.5.2PL0 Copyright (c) Steve Scherf et al.
# Submitted via: CDex 1.40Release
#
DISCID=da0f4710
DTITLE=Charlie Daniels Band - Live USA
DYEAR=1900
DGENRE=Country
TTITLE0=Trudy
TTITLE1=Legend Of Wooley Swamp
TTITLE2=Let The Blindman Play
TTITLE3=El Toreador
TTITLE4=South Sea's Boy
TTITLE5=Lonesome Boy From Dixie
TTITLE6=No Potion For The Pain
TTITLE7=Johnny B. Goode
TTITLE8=Damned Good Cowboy
TTITLE9=In America
TTITLE10=Long Haired Country Boy
TTITLE11=Uneasy Rider
TTITLE12=Texas
TTITLE13=The Devil Went Down To Georgia
TTITLE14=South's Gonna Do It Again
TTITLE15=Orange Blossom Special
EXTD=ID3G: 2
EXTT0=
EXTT1=
EXTT2=
EXTT3=
EXTT4=
EXTT5=
EXTT6=
EXTT7=
EXTT8=
EXTT9=
EXTT10=
EXTT11=
EXTT12=
EXTT13=
EXTT14=
EXTT15=
PLAYORDER=
